<?xml version="1.0" encoding="UTF-8" standalone="no"?>
<!-- Created with Inkscape (http://www.inkscape.org/) -->

<svg
   width="26.458336mm"
   height="20.544304mm"
   viewBox="0 0 26.458336 20.544304"
   version="1.1"
   id="svg5"
   xml:space="preserve"
   xmlns:inkscape="http://www.inkscape.org/namespaces/inkscape"
   xmlns:sodipodi="http://sodipodi.sourceforge.net/DTD/sodipodi-0.dtd"
   xmlns="http://www.w3.org/2000/svg"
   xmlns:svg="http://www.w3.org/2000/svg"><sodipodi:namedview
     id="namedview7"
     pagecolor="#ffffff"
     bordercolor="#000000"
     borderopacity="0.25"
     inkscape:showpageshadow="2"
     inkscape:pageopacity="0.0"
     inkscape:pagecheckerboard="0"
     inkscape:deskcolor="#d1d1d1"
     inkscape:document-units="mm"
     showgrid="false" /><defs
     id="defs2" /><g
     inkscape:label="Layer 1"
     inkscape:groupmode="layer"
     id="layer1"
     transform="translate(79.323915,-92.601117)"><path
       style="fill:#ffffff;stroke:#000000;stroke-width:0.72628;stroke-dasharray:none"
       d="m -69.968532,112.69233 c 0.0582,-0.07 0.2251,-0.48158 0.37093,-0.91441 0.21462,-0.63693 0.87322,-1.79614 1.46455,-2.57773 0.01,-0.0134 0.1818,0.0444 0.38139,0.12842 0.51159,0.21554 2.1445,0.27074 4.21754,0.14257 0.94774,-0.0586 2.3716,-0.14693 3.16412,-0.19629 2.13207,-0.13282 3.03435,-0.44066 4.00498,-1.36648 0.65166,-0.6216 1.76717,-2.20038 2.4232,-3.4296 l 0.49366,-0.92494 c 0,0 0.25227,-0.76278 0.21472,-1.17943 -0.0447,-0.49613 -0.2895,-1.6338 -0.52359,-2.21376 -0.38882,-1.10835 -0.80275,-1.89837 -1.46123,-2.78891 -0.96355,-1.30311 -1.54654,-1.76838 -3.42584,-2.73412 -1.46614,-0.75341 -3.83224,-1.45813 -5.48017,-1.63219 -1.00507,-0.10618 -4.04999,0.0293 -5.23028,0.23268 -1.11816,0.19268 -2.48677,0.57012 -3.07632,0.84839 -0.40239,0.18994 -2.01456,1.30704 -3.45096,2.39123 -0.17174,0.12963 -0.64611,0.60119 -1.05416,1.0479 -1.558654,1.70633 -2.028074,2.64613 -2.024764,4.0537 0.003,1.3793 0.25421,2.3176 1.03793,3.88026 0.56171,1.12001 0.778554,1.4522 1.282234,1.9643 0.71948,0.73155 1.18829,0.9358 2.53775,1.10566 0.86269,0.10859 0.90883,0.12575 0.96259,0.35808 0.49221,2.12744 1.57955,3.63485 2.79766,3.87848 0.17094,0.0341 0.30666,0.008 0.37406,-0.0738 z"
       id="path291-3"
       sodipodi:nodetypes="sscccssscscssssssscsssccss"
       inkscape:export-filename="balloon1.svg"
       inkscape:export-xdpi="96"
       inkscape:export-ydpi="96" /></g></svg>
