<?xml version="1.0" encoding="UTF-8" standalone="no"?>
<!-- Created with Inkscape (http://www.inkscape.org/) -->

<svg
   width="20.372925mm"
   height="15.874962mm"
   viewBox="0 0 20.372925 15.874962"
   version="1.1"
   id="svg5"
   xml:space="preserve"
   xmlns:inkscape="http://www.inkscape.org/namespaces/inkscape"
   xmlns:sodipodi="http://sodipodi.sourceforge.net/DTD/sodipodi-0.dtd"
   xmlns="http://www.w3.org/2000/svg"
   xmlns:svg="http://www.w3.org/2000/svg"><sodipodi:namedview
     id="namedview7"
     pagecolor="#ffffff"
     bordercolor="#000000"
     borderopacity="0.25"
     inkscape:showpageshadow="2"
     inkscape:pageopacity="0.0"
     inkscape:pagecheckerboard="0"
     inkscape:deskcolor="#d1d1d1"
     inkscape:document-units="mm"
     showgrid="false" /><defs
     id="defs2" /><g
     inkscape:label="Layer 1"
     inkscape:groupmode="layer"
     id="layer1"
     transform="translate(-325.98499,-48.88938)"><path
       style="fill:#ffffff;stroke:#000000;stroke-width:0.560226;stroke-dasharray:none"
       d="m 339.15413,64.414782 c -0.0448,-0.05409 -0.17332,-0.372151 -0.2856,-0.706629 -0.16525,-0.492201 -0.67234,-1.388004 -1.12765,-1.991994 -0.008,-0.01035 -0.13998,0.03431 -0.29365,0.09924 -0.39391,0.166562 -1.65118,0.20922 -3.24734,0.110174 -0.72973,-0.04528 -1.82605,-0.113544 -2.43625,-0.151687 -1.64162,-0.10264 -2.33634,-0.340529 -3.08368,-1.055976 -0.50176,-0.480354 -1.36066,-1.700389 -1.86578,-2.650293 l -0.3801,-0.714767 c 0,0 -0.19423,-0.589453 -0.16532,-0.911428 0.0344,-0.383395 0.2229,-1.262553 0.40314,-1.710729 0.29938,-0.856499 0.61809,-1.467004 1.12509,-2.155186 0.7419,-1.007006 1.19078,-1.366552 2.63777,-2.112847 1.12887,-0.582214 2.95067,-1.1268 4.21952,-1.261309 0.77386,-0.08205 3.11833,0.02264 4.02711,0.179809 0.86094,0.148896 1.91472,0.440571 2.36865,0.65561 0.30982,0.14678 1.55113,1.010042 2.6571,1.847872 0.13223,0.100174 0.49748,0.464582 0.81166,0.809786 1.20011,1.318602 1.56154,2.044851 1.55899,3.132579 -0.002,1.065882 -0.19574,1.790973 -0.79916,2.998551 -0.4325,0.86551 -0.59946,1.122216 -0.98728,1.517953 -0.55396,0.56532 -0.91493,0.723158 -1.95396,0.85442 -0.66424,0.08392 -0.69977,0.09718 -0.74116,0.276714 -0.37898,1.644023 -1.21619,2.808905 -2.15409,2.997176 -0.13162,0.02635 -0.23611,0.0062 -0.28801,-0.05703 z"
       id="path291-3-3"
       sodipodi:nodetypes="sscccssscscssssssscsssccss"
       inkscape:export-filename="balloon1.svg"
       inkscape:export-xdpi="96"
       inkscape:export-ydpi="96" /></g></svg>
