<?xml version="1.0" encoding="UTF-8" standalone="no"?>
<!-- Created with Inkscape (http://www.inkscape.org/) -->

<svg
   width="79.375mm"
   height="45.674606mm"
   viewBox="0 0 79.375 45.674606"
   version="1.1"
   id="svg5"
   xml:space="preserve"
   xmlns:inkscape="http://www.inkscape.org/namespaces/inkscape"
   xmlns:sodipodi="http://sodipodi.sourceforge.net/DTD/sodipodi-0.dtd"
   xmlns="http://www.w3.org/2000/svg"
   xmlns:svg="http://www.w3.org/2000/svg"><sodipodi:namedview
     id="namedview7"
     pagecolor="#ffffff"
     bordercolor="#000000"
     borderopacity="0.25"
     inkscape:showpageshadow="2"
     inkscape:pageopacity="0.0"
     inkscape:pagecheckerboard="0"
     inkscape:deskcolor="#d1d1d1"
     inkscape:document-units="mm"
     showgrid="false" /><defs
     id="defs2" /><g
     inkscape:label="Layer 1"
     inkscape:groupmode="layer"
     id="layer1"
     transform="translate(126.05651,-82.249113)"><g
       aria-label="123"
       id="text1095"
       style="font-size:31.3973px;font-family:'Jeopardize Thick BRK';-inkscape-font-specification:'Jeopardize Thick BRK';text-align:center;text-anchor:middle;fill:#ffffff;stroke:#000000;stroke-width:0.726281;stroke-linecap:round;stop-color:#000000"><g
         id="g1157"
         transform="matrix(1.5193005,0,0,1.5193005,65.461206,-42.712006)"><path
           d="m -119.90486,112.31203 q -0.11759,-1.62275 -0.3998,-3.29253 -0.2587,-1.66977 -0.70554,-3.43363 -0.84666,-3.48066 -0.63499,-7.172993 -0.32925,0.11759 -0.7761,0.258699 -0.44684,0.141107 -0.98776,0.282215 -1.03479,0.235181 -1.69329,0.893686 -0.11759,-0.658505 -0.28222,-1.269974 -0.16462,-0.611468 -0.3998,-1.199419 -0.42333,-1.222937 -0.18815,-2.704573 1.41108,-0.658504 2.96327,-1.269973 1.57571,-0.634986 3.31605,-1.246455 1.74033,-0.611469 3.4101,-1.269973 1.66978,-0.682023 3.31604,-1.434599 0.14112,0.376288 0.2587,0.752576 0.14111,0.352771 0.28222,0.705541 0,5.221001 -0.21166,10.324412 -0.21166,5.15045 -1.50515,10.53607 -1.34053,0.18815 -2.77513,0.37629 -1.4346,0.16463 -2.98679,0.16463 z"
           style="font-family:'Stranded BRK';-inkscape-font-specification:'Stranded BRK';fill:#aa0000;stroke:none;stroke-width:0.544018"
           id="path1147" /><path
           d="m -109.34921,112.31203 q 2.51179,-5.30615 6.34226,-9.98434 3.956057,-4.803792 7.064389,-10.109935 -0.156986,-0.659344 -0.282575,-1.28729 -0.09419,-0.627946 -0.156987,-1.224495 -0.251178,-0.251178 -1.412878,-0.784932 -1.036111,-0.502357 -2.354799,-0.502357 -0.43956,0.565152 -0.84773,1.130303 -0.40816,0.565151 -0.81633,1.067508 0.40817,0.659343 0.81633,1.28729 0.40817,0.627946 0.84773,1.224494 -0.78493,0.596549 -1.50707,1.350084 -0.72214,0.753535 -1.38148,1.601263 -0.65934,0.816329 -1.28729,1.664056 -0.62795,0.847728 -1.25589,1.63266 -0.31397,0.125589 -0.62795,0.219781 -0.31397,0.09419 -0.59655,0.156987 -1.28729,-0.282576 -1.56986,-1.318687 -0.21978,-1.036111 -1.82105,-2.009427 -0.31397,-0.941919 -0.56515,-1.821044 -0.21978,-0.879124 -0.40816,-1.758248 -0.15699,-0.910522 -0.25118,-1.852441 -0.0628,-0.973317 -0.0628,-2.072222 1.00471,-1.883838 2.13501,-3.799073 0.47096,-0.47096 0.84773,-0.81633 0.37677,-0.345371 0.69074,-0.596549 0.56515,-0.439562 2.22921,-1.067508 1.97803,-0.627946 4.23863,-0.251179 1.1931,0.156987 2.323404,0.345371 1.1617,0.156986 2.260606,0.313973 0.596548,0.34537 1.224494,0.659343 0.627946,0.313973 1.28729,0.627946 0.596548,0.408165 1.193097,0.81633 0.627946,0.376767 1.287289,0.784932 0.690741,0.596549 1.28729,1.28729 0.596548,0.313973 0.784932,1.412878 0.125589,0.533754 0.313973,1.130303 0.188384,0.596549 0.502357,1.224495 v 1.224495 q -0.910522,2.480386 -2.700168,4.740992 -0.879124,1.098905 -1.569865,2.417592 -0.659343,1.318691 -1.098905,2.888551 0.470959,0 1.036111,-0.0628 0.596548,-0.0628 1.255892,-0.12559 0.659343,-0.0628 1.350084,-0.12559 0.69074,-0.0628 1.350083,-0.0628 0.219782,0.15699 0.847728,0.37677 0,1.88384 -0.533755,4.05025 -0.533754,2.16642 -1.1617,4.33283 -4.740992,0.65934 -9.513382,1.1617 -4.740995,0.50236 -9.733165,0.50236 z"
           style="font-family:'Stranded BRK';-inkscape-font-specification:'Stranded BRK';fill:#ff6600;stroke:none"
           id="path1149" /><path
           d="m -79.183081,112.31203 q -1.846288,-0.35434 -4.028265,-1.00707 -2.200627,-0.65272 -4.065565,-1.67844 0.167845,-0.50353 0.354338,-1.00707 0.186494,-0.50353 0.410286,-0.98842 0.223793,-0.48488 0.522183,-0.95112 0.29839,-0.46623 0.727326,-0.89516 0.503533,0.26109 1.100313,0.55948 0.615429,0.27974 1.324106,0.61543 1.454651,0.65273 2.965251,0.65273 0.111896,-0.0746 0.279741,-0.1865 0.167844,-0.1119 0.410286,-0.29839 -0.0746,-0.31704 -0.130546,-0.65273 -0.0373,-0.33569 -0.0746,-0.69002 -0.167843,-0.1492 -0.354337,-0.31704 -0.167845,-0.1865 -0.335689,-0.35434 -0.428936,-0.0746 -0.820573,-0.11189 -0.391637,-0.056 -0.783274,-0.1119 -0.391637,-0.0746 -0.820572,-0.16785 -0.428936,-0.0932 -0.932469,-0.26109 -0.279741,-0.22379 -0.484884,-0.46623 0,-0.24245 -0.0373,-0.55949 -0.01865,-0.31703 -0.0746,-0.67137 -0.0373,-0.35434 -0.0746,-0.72733 -0.01865,-0.37299 -0.01865,-0.70867 0.857872,-0.16785 1.585197,0.0746 0.727326,0.24244 1.790341,-0.0746 0.652728,-0.16785 0.578131,-0.74598 -0.0746,-0.57813 0.09325,-1.268158 -0.335688,-0.167844 -0.671377,-0.335689 -0.335689,-0.186493 -0.671378,-0.354338 -0.801923,0 -2.032782,0.428936 -1.156261,0.410286 -1.995483,0.932469 -0.242442,-0.09325 -0.410287,-0.149195 -0.149194,-0.0746 -0.242442,-0.111896 -0.205143,-0.484884 -0.59678,-0.801924 -0.372987,-0.29839 -0.57813,-1.174911 0.59678,-0.503533 1.230859,-1.007066 0.634078,-0.503533 1.342755,-0.969768 0.708676,-0.466234 1.510599,-0.857871 0.820573,-0.410286 1.771691,-0.727325 h 3.375537 q 0.820573,0 1.305457,0.652728 0.522182,0.671377 1.361404,1.342755 0.167845,0.503533 0.298391,0.988417 0.130545,0.466234 0.223792,0.951118 0.111896,0.484884 0.186493,1.007066 0.09325,0.503533 0.167845,1.100312 -0.111896,0.33569 -0.223793,0.67138 -0.09325,0.33569 -0.186493,0.65273 -0.09325,0.14919 -0.242442,0.37298 -0.149195,0.2238 -0.354338,0.48489 -0.354339,0.52218 -1.21221,0.67138 0,0.87652 0.690027,0.80192 0.727326,-0.0932 0.857871,0.57813 0.354339,0.48488 0.671378,1.08167 0.335689,0.57812 0.690027,1.58519 0,0.50353 -0.261091,1.28681 -0.130546,0.37299 -0.242442,0.74597 -0.09325,0.35434 -0.186494,0.67138 -0.335688,0.35434 -0.671378,0.69003 -0.335688,0.33569 -0.652728,0.65273 -0.839222,0.35433 -1.603846,0.67137 -0.764624,0.29839 -1.753041,0.46624 z"
           style="font-family:'Stranded BRK';-inkscape-font-specification:'Stranded BRK';fill:#ffd42a;stroke:none;stroke-width:0.431397"
           id="path1151" /></g></g></g></svg>
